<svg width="480" height="480" viewBox="0 0 480 480" fill="none" xmlns="http://www.w3.org/2000/svg">
<path d="M370.107 247.5H472.5V472.5H374.5V353V334.893L361.697 347.697L240 469.393L118.303 347.697L105.5 334.893V353V472.5H7.5V247.5H109.893L234.697 372.303L240 377.607L245.303 372.303L370.107 247.5Z" fill="#CCFFFF" stroke="#184878" stroke-width="15"/>
<path d="M472.5 40V232.5H374.5V203V195.5H367H113H105.5V203V232.5H7.5V40C7.5 35.4466 9.59044 30.7211 15.5032 25.7322L15.5547 25.6887L15.6054 25.6443C21.6778 20.331 30.1624 15.877 41.4289 12.5347C53.1116 9.20074 65.9532 7.5 80 7.5H400C414.066 7.5 426.668 9.20534 437.869 12.5243L437.904 12.5347L437.94 12.5448C449.692 15.9025 458.364 20.3675 464.395 25.6443L464.445 25.6887L464.497 25.7322C470.41 30.7211 472.5 35.4467 472.5 40ZM105.5 133V140.5H113H367H374.5V133V90C374.5 81.994 368.4 77.1116 362.361 74.2914C356.158 70.9677 348.928 69.5 341 69.5H139C130.821 69.5 124.103 71.0631 117.646 74.2918C114.757 75.7361 111.892 77.5812 109.663 79.9878C107.368 82.4669 105.5 85.8427 105.5 90V133Z" fill="#FFDDEE" stroke="#184878" stroke-width="15"/>
</svg>
